<svg width="72" height="72" viewBox="0 0 72 72" fill="none" xmlns="http://www.w3.org/2000/svg">
<g clip-path="url(#clip0_249_3204)">
<path d="M11.6782 37V12.178H22.8082V14.11H14.2822V18.73H18.4402C19.6162 18.73 20.5682 18.912 21.2962 19.276C22.0522 19.64 22.5982 20.214 22.9342 20.998C23.2982 21.754 23.4802 22.748 23.4802 23.98V30.826C23.4802 32.002 23.3682 32.982 23.1442 33.766C22.9482 34.55 22.6402 35.18 22.2202 35.656C21.8002 36.132 21.2542 36.482 20.5822 36.706C19.9382 36.902 19.1542 37 18.2302 37H11.6782ZM17.7262 35.488C18.6222 35.488 19.2942 35.32 19.7422 34.984C20.1902 34.62 20.4842 34.13 20.6242 33.514C20.7922 32.898 20.8762 32.212 20.8762 31.456V24.358C20.8762 23.658 20.8062 23.014 20.6662 22.426C20.5262 21.81 20.2322 21.32 19.7842 20.956C19.3362 20.592 18.6222 20.41 17.6422 20.41H14.2822V35.488H17.7262ZM33.8864 37.504V34.27H32.8784C30.8344 34.27 29.3084 33.836 28.3004 32.968C27.3204 32.1 26.8304 30.644 26.8304 28.6V20.368C26.8304 18.576 27.2924 17.232 28.2164 16.336C29.1404 15.44 30.5964 14.992 32.5844 14.992H33.8864V12.178H36.4904V14.992H37.7084C39.6684 14.992 41.1244 15.426 42.0764 16.294C43.0284 17.134 43.5044 18.534 43.5044 20.494V28.516C43.5044 30.728 42.9864 32.24 41.9504 33.052C40.9424 33.864 39.4164 34.27 37.3724 34.27H36.4904V37.504H33.8864ZM33.1724 32.8H33.8864C33.8864 30.056 33.8864 27.354 33.8864 24.694C33.8864 22.006 33.8864 19.318 33.8864 16.63H33.2144C31.9824 16.63 31.0584 16.952 30.4424 17.596C29.8264 18.212 29.5184 19.234 29.5184 20.662V28.726C29.5184 30.154 29.8264 31.19 30.4424 31.834C31.0584 32.478 31.9684 32.8 33.1724 32.8ZM36.4904 32.8H37.0364C38.2684 32.8 39.2064 32.506 39.8504 31.918C40.5224 31.33 40.8584 30.252 40.8584 28.684V20.746C40.8584 19.178 40.5224 18.1 39.8504 17.512C39.2064 16.924 38.2684 16.63 37.0364 16.63H36.4904C36.4904 19.318 36.4904 22.006 36.4904 24.694C36.4904 27.354 36.4904 30.056 36.4904 32.8ZM47.772 37V12.178H50.166V31.582L57.936 12.178H60.33V37H57.936V18.268L50.208 37H47.772Z" fill="black"/>
<path d="M12.6215 59C12.6215 58.3813 12.6215 57.7733 12.6215 57.176C12.6215 56.5573 12.6215 55.9387 12.6215 55.32C12.6215 54.232 12.7708 53.368 13.0695 52.728C13.3895 52.088 13.8375 51.5653 14.4135 51.16C15.0108 50.7333 15.7468 50.3067 16.6215 49.88C17.3682 49.5173 17.9868 49.1333 18.4775 48.728C18.9682 48.3013 19.3415 47.7893 19.5975 47.192C19.8535 46.5733 19.9815 45.816 19.9815 44.92C20.0028 43.9173 19.8215 43.1493 19.4375 42.616C19.0748 42.0827 18.4562 41.816 17.5815 41.816C16.7708 41.816 16.1522 42.0827 15.7255 42.616C15.3202 43.1493 15.1175 43.9707 15.1175 45.08V46.584H12.6535V44.504C12.6535 42.968 13.0802 41.8373 13.9335 41.112C14.7868 40.3653 16.0135 39.992 17.6135 39.992C18.8295 39.992 19.8002 40.1733 20.5255 40.536C21.2508 40.8987 21.7735 41.4533 22.0935 42.2C22.4135 42.9467 22.5735 43.896 22.5735 45.048C22.5735 46.4987 22.2962 47.704 21.7415 48.664C21.1868 49.624 20.3228 50.424 19.1495 51.064C18.5308 51.3413 17.9548 51.64 17.4215 51.96C16.9095 52.2587 16.4722 52.6213 16.1095 53.048C15.7682 53.4533 15.5548 53.976 15.4695 54.616C15.3842 54.9787 15.3095 55.352 15.2455 55.736C15.2028 56.12 15.1815 56.5253 15.1815 56.952H22.7015V59H12.6215ZM24.7465 59C24.7465 58.3813 24.7465 57.7733 24.7465 57.176C24.7465 56.5573 24.7465 55.9387 24.7465 55.32C24.7465 54.232 24.8958 53.368 25.1945 52.728C25.5145 52.088 25.9625 51.5653 26.5385 51.16C27.1358 50.7333 27.8718 50.3067 28.7465 49.88C29.4932 49.5173 30.1118 49.1333 30.6025 48.728C31.0932 48.3013 31.4665 47.7893 31.7225 47.192C31.9785 46.5733 32.1065 45.816 32.1065 44.92C32.1278 43.9173 31.9465 43.1493 31.5625 42.616C31.1998 42.0827 30.5812 41.816 29.7065 41.816C28.8958 41.816 28.2772 42.0827 27.8505 42.616C27.4452 43.1493 27.2425 43.9707 27.2425 45.08V46.584H24.7785V44.504C24.7785 42.968 25.2052 41.8373 26.0585 41.112C26.9118 40.3653 28.1385 39.992 29.7385 39.992C30.9545 39.992 31.9252 40.1733 32.6505 40.536C33.3758 40.8987 33.8985 41.4533 34.2185 42.2C34.5385 42.9467 34.6985 43.896 34.6985 45.048C34.6985 46.4987 34.4212 47.704 33.8665 48.664C33.3118 49.624 32.4478 50.424 31.2745 51.064C30.6558 51.3413 30.0798 51.64 29.5465 51.96C29.0345 52.2587 28.5972 52.6213 28.2345 53.048C27.8932 53.4533 27.6798 53.976 27.5945 54.616C27.5092 54.9787 27.4345 55.352 27.3705 55.736C27.3278 56.12 27.3065 56.5253 27.3065 56.952H34.8265V59H24.7465ZM42.0555 59.384C41.0955 59.384 40.2315 59.1813 39.4635 58.776C38.7168 58.3707 38.1195 57.7307 37.6715 56.856C37.2448 55.96 37.0315 54.808 37.0315 53.4V45.368C37.0315 43.4693 37.5115 42.072 38.4715 41.176C39.4528 40.28 40.6688 39.832 42.1195 39.832C43.5275 39.832 44.7008 40.2907 45.6395 41.208C46.5782 42.104 47.0475 43.4907 47.0475 45.368V53.4C47.0475 54.8293 46.8342 55.992 46.4075 56.888C45.9808 57.7627 45.3835 58.4027 44.6155 58.808C43.8688 59.192 43.0155 59.384 42.0555 59.384ZM42.0555 57.88C42.8022 57.88 43.4102 57.592 43.8795 57.016C44.3702 56.44 44.6155 55.608 44.6155 54.52V44.76C44.6155 43.672 44.3595 42.84 43.8475 42.264C43.3568 41.688 42.7595 41.4 42.0555 41.4C41.3302 41.4 40.7222 41.688 40.2315 42.264C39.7408 42.84 39.4955 43.672 39.4955 44.76V54.52C39.4955 55.608 39.7408 56.44 40.2315 57.016C40.7222 57.592 41.3302 57.88 42.0555 57.88ZM49.6215 59C49.6215 58.3813 49.6215 57.7733 49.6215 57.176C49.6215 56.5573 49.6215 55.9387 49.6215 55.32C49.6215 54.232 49.7708 53.368 50.0695 52.728C50.3895 52.088 50.8375 51.5653 51.4135 51.16C52.0108 50.7333 52.7468 50.3067 53.6215 49.88C54.3682 49.5173 54.9868 49.1333 55.4775 48.728C55.9682 48.3013 56.3415 47.7893 56.5975 47.192C56.8535 46.5733 56.9815 45.816 56.9815 44.92C57.0028 43.9173 56.8215 43.1493 56.4375 42.616C56.0748 42.0827 55.4562 41.816 54.5815 41.816C53.7708 41.816 53.1522 42.0827 52.7255 42.616C52.3202 43.1493 52.1175 43.9707 52.1175 45.08V46.584H49.6535V44.504C49.6535 42.968 50.0802 41.8373 50.9335 41.112C51.7868 40.3653 53.0135 39.992 54.6135 39.992C55.8295 39.992 56.8002 40.1733 57.5255 40.536C58.2508 40.8987 58.7735 41.4533 59.0935 42.2C59.4135 42.9467 59.5735 43.896 59.5735 45.048C59.5735 46.4987 59.2962 47.704 58.7415 48.664C58.1868 49.624 57.3228 50.424 56.1495 51.064C55.5308 51.3413 54.9548 51.64 54.4215 51.96C53.9095 52.2587 53.4722 52.6213 53.1095 53.048C52.7682 53.4533 52.5548 53.976 52.4695 54.616C52.3842 54.9787 52.3095 55.352 52.2455 55.736C52.2028 56.12 52.1815 56.5253 52.1815 56.952H59.7015V59H49.6215Z" fill="black"/>
</g>
<defs>
<clipPath id="clip0_249_3204">
<rect width="72" height="72" fill="white"/>
</clipPath>
</defs>
</svg>
